HIERARCHY
ROOT hip
{
  OFFSET 0.00112043 5.09927 -9.65472
  CHANNELS 6 Xposition Yposition Zposition Zrotation Xrotation Yrotation
  JOINT abdomen
  {
    OFFSET 0 -1.186 -1.5018
    CHANNELS 3 Zrotation Xrotation Yrotation
    JOINT abdomen2
    {
      OFFSET 0 9.964 0.2134
      CHANNELS 3 Zrotation Xrotation Yrotation
      JOINT chest
      {
        OFFSET 0 13.134 -3.2573
        CHANNELS 3 Zrotation Xrotation Yrotation
        JOINT neck
        {
          OFFSET 0 20.686 -1.6905
          CHANNELS 3 Zrotation Xrotation Yrotation
          JOINT head
          {
            OFFSET 0 7.238 -0.1237
            CHANNELS 3 Zrotation Xrotation Yrotation
            End Site
            {
              OFFSET 0 0 0
            }
          }
        }
        JOINT lCollar
        {
          OFFSET 1.7069 20.075 5.0056
          CHANNELS 3 Zrotation Xrotation Yrotation
          JOINT lShldr
          {
            OFFSET 13.6458 -0.047 -4.849
            CHANNELS 3 Zrotation Xrotation Yrotation
            JOINT lForeArm
            {
              OFFSET 28.3255 -0.9759 2.2888
              CHANNELS 3 Zrotation Xrotation Yrotation
              JOINT lHand
              {
                OFFSET 22.1583 -0.53 10.8316
                CHANNELS 3 Zrotation Xrotation Yrotation
                JOINT lThumb1
                {
                  OFFSET 0.786 0.112 2.5817
                  CHANNELS 3 Zrotation Xrotation Yrotation
                  JOINT lThumb2
                  {
                    OFFSET 0.3601 -0.878 4.2331
                    CHANNELS 3 Zrotation Xrotation Yrotation
                    JOINT lThumb2_End
                    {
                      OFFSET 1.8127 -1.216 2.2227
                      CHANNELS 3 Zrotation Xrotation Yrotation
                      End Site
                      {
                        OFFSET 0.0181 -0.0122 0.0222
                      }
                    }
                  }
                }
                JOINT lCarpal1
                {
                  OFFSET 0.9571 1.114 1.7695
                  CHANNELS 3 Zrotation Xrotation Yrotation
                  JOINT lIndex1
                  {
                    OFFSET 4.1246 0.487 4.1451
                    CHANNELS 3 Zrotation Xrotation Yrotation
                    JOINT lIndex2
                    {
                      OFFSET 3.4052 -1.454 2.7682
                      CHANNELS 3 Zrotation Xrotation Yrotation
                      JOINT lIndex2_End
                      {
                        OFFSET 1.4531 -1.795 1.2713
                        CHANNELS 3 Zrotation Xrotation Yrotation
                        End Site
                        {
                          OFFSET 0.0145 -0.0179 0.0127
                        }
                      }
                    }
                  }
                  JOINT lMid1
                  {
                    OFFSET 5.6954 0.21 2.1184
                    CHANNELS 3 Zrotation Xrotation Yrotation
                    JOINT lMid2
                    {
                      OFFSET 3.9766 -1.54 2.3863
                      CHANNELS 3 Zrotation Xrotation Yrotation
                      JOINT lMid2_End
                      {
                        OFFSET 1.4042 -1.926 1.125
                        CHANNELS 3 Zrotation Xrotation Yrotation
                        End Site
                        {
                          OFFSET 0.014 -0.0193 0.0113
                        }
                      }
                    }
                  }
                }
                JOINT lCarpal2
                {
                  OFFSET 2.0956 0.66 -0.3894
                  CHANNELS 3 Zrotation Xrotation Yrotation
                  JOINT lRing1
                  {
                    OFFSET 5.0395 -0.09 2.4971
                    CHANNELS 3 Zrotation Xrotation Yrotation
                    JOINT lRing2
                    {
                      OFFSET 3.7921 -1.552 1.4806
                      CHANNELS 3 Zrotation Xrotation Yrotation
                      JOINT lRing2_End
                      {
                        OFFSET 1.4655 -1.808 0.9609
                        CHANNELS 3 Zrotation Xrotation Yrotation
                        End Site
                        {
                          OFFSET 0.0147 -0.0181 0.0096
                        }
                      }
                    }
                  }
                  JOINT lPinky1
                  {
                    OFFSET 4.9141 -1.269 0.3591
                    CHANNELS 3 Zrotation Xrotation Yrotation
                    JOINT lPinky2
                    {
                      OFFSET 3.1477 -1.685 0.8462
                      CHANNELS 3 Zrotation Xrotation Yrotation
                      JOINT lPinky2_End
                      {
                        OFFSET 0.8055 -1.585 0.7955
                        CHANNELS 3 Zrotation Xrotation Yrotation
                        End Site
                        {
                          OFFSET 0.0081 -0.0158 0.008
                        }
                      }
                    }
                  }
                }
              }
            }
          }
        }
        JOINT rCollar
        {
          OFFSET -1.7069 20.075 5.0056
          CHANNELS 3 Zrotation Xrotation Yrotation
          JOINT rShldr
          {
            OFFSET -13.6458 -0.047 -4.849
            CHANNELS 3 Zrotation Xrotation Yrotation
            JOINT rForeArm
            {
              OFFSET -28.3255 -0.9759 2.2888
              CHANNELS 3 Zrotation Xrotation Yrotation
              JOINT rHand
              {
                OFFSET -22.1583 -0.53 10.8316
                CHANNELS 3 Zrotation Xrotation Yrotation
                JOINT rThumb1
                {
                  OFFSET -0.786 0.112 2.5817
                  CHANNELS 3 Zrotation Xrotation Yrotation
                  JOINT rThumb2
                  {
                    OFFSET -0.3601 -0.878 4.2331
                    CHANNELS 3 Zrotation Xrotation Yrotation
                    JOINT rThumb2_End
                    {
                      OFFSET -1.8127 -1.216 2.2227
                      CHANNELS 3 Zrotation Xrotation Yrotation
                      End Site
                      {
                        OFFSET -0.0181 -0.0122 0.0222
                      }
                    }
                  }
                }
                JOINT rCarpal1
                {
                  OFFSET -0.9571 1.114 1.7695
                  CHANNELS 3 Zrotation Xrotation Yrotation
                  JOINT rIndex1
                  {
                    OFFSET -4.1246 0.487 4.1451
                    CHANNELS 3 Zrotation Xrotation Yrotation
                    JOINT rIndex2
                    {
                      OFFSET -3.4052 -1.454 2.7682
                      CHANNELS 3 Zrotation Xrotation Yrotation
                      JOINT rIndex2_End
                      {
                        OFFSET -1.4531 -1.795 1.2713
                        CHANNELS 3 Zrotation Xrotation Yrotation
                        End Site
                        {
                          OFFSET -0.0145 -0.018 0.0127
                        }
                      }
                    }
                  }
                  JOINT rMid1
                  {
                    OFFSET -5.6954 0.21 2.1184
                    CHANNELS 3 Zrotation Xrotation Yrotation
                    JOINT rMid2
                    {
                      OFFSET -3.9766 -1.54 2.3863
                      CHANNELS 3 Zrotation Xrotation Yrotation
                      JOINT rMid2_End
                      {
                        OFFSET -1.4042 -1.926 1.125
                        CHANNELS 3 Zrotation Xrotation Yrotation
                        End Site
                        {
                          OFFSET -0.014 -0.0193 0.0113
                        }
                      }
                    }
                  }
                }
                JOINT rCarpal2
                {
                  OFFSET -2.0956 0.66 -0.3894
                  CHANNELS 3 Zrotation Xrotation Yrotation
                  JOINT rRing1
                  {
                    OFFSET -5.0395 -0.09 2.4971
                    CHANNELS 3 Zrotation Xrotation Yrotation
                    JOINT rRing2
                    {
                      OFFSET -3.7921 -1.552 1.4806
                      CHANNELS 3 Zrotation Xrotation Yrotation
                      JOINT rRing2_End
                      {
                        OFFSET -1.4655 -1.808 0.9609
                        CHANNELS 3 Zrotation Xrotation Yrotation
                        End Site
                        {
                          OFFSET -0.0147 -0.0181 0.0096
                        }
                      }
                    }
                  }
                  JOINT rPinky1
                  {
                    OFFSET -4.9141 -1.269 0.3592
                    CHANNELS 3 Zrotation Xrotation Yrotation
                    JOINT rPinky2
                    {
                      OFFSET -3.1477 -1.685 0.8462
                      CHANNELS 3 Zrotation Xrotation Yrotation
                      JOINT rPinky2_End
                      {
                        OFFSET -0.8055 -1.585 0.7955
                        CHANNELS 3 Zrotation Xrotation Yrotation
                        End Site
                        {
                          OFFSET -0.0081 -0.0158 0.008
                        }
                      }
                    }
                  }
                }
              }
            }
          }
        }
      }
    }
  }
  JOINT lThigh
  {
    OFFSET 8.367 -8.2066 0.5982
    CHANNELS 3 Zrotation Xrotation Yrotation
    JOINT lShin
    {
      OFFSET 2.1923 -43.463 -0.4932
      CHANNELS 3 Zrotation Xrotation Yrotation
      JOINT lFoot
      {
        OFFSET 0.7333 -45.8593 -2.6451
        CHANNELS 3 Zrotation Xrotation Yrotation
        End Site
        {
          OFFSET 2.6618 -4.2699 12.3931
        }
      }
    }
  }
  JOINT rThigh
  {
    OFFSET -8.367 -8.2066 0.5982
    CHANNELS 3 Zrotation Xrotation Yrotation
    JOINT rShin
    {
      OFFSET -2.1923 -43.463 -0.4931
      CHANNELS 3 Zrotation Xrotation Yrotation
      JOINT rFoot
      {
        OFFSET -0.7333 -45.8593 -2.6451
        CHANNELS 3 Zrotation Xrotation Yrotation
        End Site
        {
          OFFSET -2.6618 -4.2699 12.3931
        }
      }
    }
  }
}
MOTION
Frames:	4
Frame Time:	0.0333333
0.00387269 -0.550843 -70.7635 -180 -89.9981 -180 -0.0639237 8.82268 -0.107515 -0.112905 17.6455 -0.208715 -0.112905 17.6455 -0.208716 6.19415e-006 -13.6446 1.0777e-006 -7.00758e-008 -36.0636 -5.13682e-008 1.17564 -0.341948 8.29517 -76.1148 1.3823 36.1032 33.148 3.92335 -61.0936 3.15187 23.8651 -2.75704 -7.95139e-016 0 -0 -2.38542e-015 9.93923e-016 9.54166e-015 7.95139e-016 1.39149e-015 3.18055e-015 -7.95139e-016 0 -3.18055e-015 3.97569e-016 -2.78299e-015 -0 -1.98785e-015 -2.38542e-015 6.36111e-015 2.09661e-031 -3.77691e-015 3.18055e-015 3.97569e-016 -2.78299e-015 -0 -1.98785e-015 -2.38542e-015 6.36111e-015 2.09661e-031 -3.77691e-015 3.18055e-015 -7.95139e-016 0 -3.18055e-015 3.97569e-016 -2.78299e-015 -0 -1.98785e-015 -2.38542e-015 6.36111e-015 2.09661e-031 -3.77691e-015 3.18055e-015 3.97569e-016 -2.78299e-015 -0 -1.98785e-015 -2.38542e-015 6.36111e-015 2.09661e-031 -3.77691e-015 3.18055e-015 -1.11894 -0.356716 -8.30239 76.2431 1.27197 -35.3716 -33.9742 2.86393 60.1523 -3.44134 23.7592 3.4854 -4.1245e-007 -7.19968e-008 -2.80204e-006 -2.38542e-015 -3.97569e-016 6.36111e-015 0 5.1684e-015 -0 1.76556e-031 -3.18055e-015 3.18055e-015 -4.1245e-007 -7.19968e-008 -2.80204e-006 3.18055e-015 2.78299e-015 -0 -2.38542e-015 -7.95139e-016 3.18055e-015 -4.1245e-007 -7.19968e-008 -2.80204e-006 3.18055e-015 2.78299e-015 -0 -2.38542e-015 -7.95139e-016 3.18055e-015 1.76556e-031 -3.18055e-015 3.18055e-015 -4.1245e-007 -7.19968e-008 -2.80204e-006 3.18055e-015 2.78299e-015 -0 -2.38542e-015 -7.95139e-016 3.18055e-015 -4.1245e-007 -7.19968e-008 -2.80204e-006 3.18055e-015 2.78299e-015 -0 -2.38542e-015 -7.95139e-016 3.18055e-015 13.5463 1.07074 1.48743 -1.8086 4.86981 1.20536 12.1632 17.0302 -0.466815 -13.6285 1.22779 -1.48444 1.83684 4.8407 -1.21709 -12.1653 16.9969 0.460499 
0.00931668 -0.544421 -70.7642 -180 -89.9981 -180 -0.0657607 9.22059 -0.106138 -0.116257 18.4413 -0.205469 -0.116257 18.4413 -0.205469 2.89548e-008 -14.4439 1.88517e-007 2.85313e-007 -37.1957 9.91955e-008 2.02653 -1.5115 7.84106 -76.68 1.14321 36.2189 33.1176 4.0906 -61.3769 3.64658 23.0924 -2.92207 2.12908e-007 -6.42425e-007 2.04737e-007 2.38542e-015 2.38542e-015 3.18055e-015 1.98785e-015 -1.98785e-015 -0 1.59028e-015 -4.37326e-015 -0 2.12908e-007 -6.42425e-007 2.04737e-007 7.95139e-016 3.97569e-016 -3.18055e-015 1.19271e-015 -2.38542e-015 -3.18055e-015 2.12908e-007 -6.42425e-007 2.04737e-007 7.95139e-016 3.97569e-016 -3.18055e-015 1.19271e-015 -2.38542e-015 -3.18055e-015 1.59028e-015 -4.37326e-015 -0 2.12908e-007 -6.42425e-007 2.04737e-007 7.95139e-016 3.97569e-016 -3.18055e-015 1.19271e-015 -2.38542e-015 -3.18055e-015 2.12908e-007 -6.42425e-007 2.04737e-007 7.95139e-016 3.97569e-016 -3.18055e-015 1.19271e-015 -2.38542e-015 -3.18055e-015 -1.87936 -1.5482 -7.85262 76.7684 1.04901 -35.4799 -33.9361 3.01992 60.4215 -3.90724 22.9827 3.61432 -7.77871e-007 -1.46325e-006 3.22629e-007 -2.9265e-006 1.55574e-006 5.1163e-007 -2.24112e-006 -6.8538e-007 5.78444e-007 7.95139e-016 2.78299e-015 -3.18055e-015 -7.77871e-007 -1.46325e-006 3.22629e-007 -2.9265e-006 1.55574e-006 5.1163e-007 -2.24112e-006 -6.8538e-007 5.78444e-007 -7.77871e-007 -1.46325e-006 3.22629e-007 -2.9265e-006 1.55574e-006 5.1163e-007 -2.24112e-006 -6.8538e-007 5.78444e-007 7.95139e-016 2.78299e-015 -3.18055e-015 -7.77871e-007 -1.46325e-006 3.22629e-007 -2.9265e-006 1.55574e-006 5.1163e-007 -2.24112e-006 -6.8538e-007 5.78444e-007 -7.77871e-007 -1.46325e-006 3.22629e-007 -2.9265e-006 1.55574e-006 5.1163e-007 -2.24112e-006 -6.8538e-007 5.78444e-007 13.4209 0.947402 1.51908 -1.65524 4.99147 1.16534 12.1773 17.2282 -0.487861 -13.6214 1.33688 -1.5065 1.73066 4.92379 -1.19047 -12.1768 17.1434 0.476308 
0.0147768 -0.537996 -70.7649 -180 -89.9981 -180 -0.0676169 9.62068 -0.104713 -0.119691 19.2415 -0.202092 -0.119692 19.2414 -0.202092 2.16077e-006 -15.2424 7.56513e-007 1.53345e-007 -38.3239 1.55436e-007 2.86975 -2.68905 7.40354 -77.2447 0.902951 36.3324 33.0879 4.25801 -61.6601 4.1363 22.3182 -3.07903 -2.0956e-007 6.4151e-007 -2.00609e-007 -2.2524e-006 6.51519e-007 5.69376e-007 3.57812e-015 -2.98177e-015 -6.36111e-015 2.78299e-015 4.37326e-015 3.18055e-015 -2.0956e-007 6.4151e-007 -2.00609e-007 -2.2524e-006 6.51519e-007 5.69376e-007 2.78299e-015 2.5842e-015 -3.18055e-015 -2.0956e-007 6.4151e-007 -2.00609e-007 -2.2524e-006 6.51519e-007 5.69376e-007 2.78299e-015 2.5842e-015 -3.18055e-015 2.78299e-015 4.37326e-015 3.18055e-015 -2.0956e-007 6.4151e-007 -2.00609e-007 -2.2524e-006 6.51519e-007 5.69376e-007 2.78299e-015 2.5842e-015 -3.18055e-015 -2.0956e-007 6.4151e-007 -2.00609e-007 -2.2524e-006 6.51519e-007 5.69376e-007 2.78299e-015 2.5842e-015 -3.18055e-015 -2.63183 -2.74687 -7.41788 77.2933 0.825043 -35.586 -33.8987 3.17613 60.6906 -4.3688 22.205 3.73575 -2.24074e-006 -6.86769e-007 5.78358e-007 2.92751e-006 -1.55397e-006 -5.12158e-007 -2.24074e-006 -6.86769e-007 5.78358e-007 5.73808e-031 -1.03368e-014 3.18055e-015 -2.24074e-006 -6.86769e-007 5.78358e-007 2.92751e-006 -1.55397e-006 -5.12158e-007 -2.24074e-006 -6.86769e-007 5.78358e-007 -2.24074e-006 -6.86769e-007 5.78358e-007 2.92751e-006 -1.55397e-006 -5.12158e-007 -2.24074e-006 -6.86769e-007 5.78358e-007 5.73808e-031 -1.03368e-014 3.18055e-015 -2.24074e-006 -6.86769e-007 5.78358e-007 2.92751e-006 -1.55397e-006 -5.12158e-007 -2.24074e-006 -6.86769e-007 5.78358e-007 -2.24074e-006 -6.86769e-007 5.78358e-007 2.92751e-006 -1.55397e-006 -5.12158e-007 -2.24074e-006 -6.86769e-007 5.78358e-007 13.2953 0.828568 1.5507 -1.50155 5.10427 1.12372 12.1916 17.4306 -0.509398 -13.6144 1.44842 -1.52886 1.62441 5.00227 -1.16303 -12.1886 17.2919 0.492359 
0.0202486 -0.531576 -70.7654 -180 -89.9981 -180 -0.0694903 10.0223 -0.103239 -0.123207 20.0447 -0.198585 -0.123207 20.0447 -0.198585 8.02722e-006 -16.0398 1.66026e-006 2.49829e-008 -39.4482 6.21853e-008 3.70562 -3.87385 6.98257 -77.8091 0.661539 36.4434 33.059 4.42558 -61.9433 4.62122 21.5425 -3.22808 7.95139e-016 4.17448e-015 -6.36111e-015 2.45968e-006 -1.29384e-006 -3.71537e-007 1.59028e-015 3.57812e-015 -3.18055e-015 7.95139e-016 3.77691e-015 -6.36111e-015 3.97569e-016 7.95139e-016 -9.54166e-015 2.45968e-006 -1.29384e-006 -3.71537e-007 -1.19271e-015 9.93923e-016 -9.54166e-015 3.97569e-016 7.95139e-016 -9.54166e-015 2.45968e-006 -1.29384e-006 -3.71537e-007 -1.19271e-015 9.93923e-016 -9.54166e-015 7.95139e-016 3.77691e-015 -6.36111e-015 3.97569e-016 7.95139e-016 -9.54166e-015 2.45968e-006 -1.29384e-006 -3.71537e-007 -1.19271e-015 9.93923e-016 -9.54166e-015 3.97569e-016 7.95139e-016 -9.54166e-015 2.45968e-006 -1.29384e-006 -3.71537e-007 -1.19271e-015 9.93923e-016 -9.54166e-015 -3.37667 -3.95206 -6.9981 77.8178 0.600085 -35.6902 -33.8621 3.33249 60.9597 -4.82624 21.4262 3.84978 -2.2405e-006 -6.87714e-007 5.78202e-007 -1.55278e-006 -2.92821e-006 6.44102e-007 -2.2405e-006 -6.87714e-007 5.78202e-007 3.97569e-015 4.77083e-015 6.36111e-015 -2.2405e-006 -6.87714e-007 5.78202e-007 -1.55278e-006 -2.92821e-006 6.44102e-007 -2.2405e-006 -6.87714e-007 5.78202e-007 -2.2405e-006 -6.87714e-007 5.78202e-007 -1.55278e-006 -2.92821e-006 6.44102e-007 -2.2405e-006 -6.87714e-007 5.78202e-007 3.97569e-015 4.77083e-015 6.36111e-015 -2.2405e-006 -6.87714e-007 5.78202e-007 -1.55278e-006 -2.92821e-006 6.44102e-007 -2.2405e-006 -6.87714e-007 5.78202e-007 -2.2405e-006 -6.87714e-007 5.78202e-007 -1.55278e-006 -2.92821e-006 6.44102e-007 -2.2405e-006 -6.87714e-007 5.78202e-007 13.1696 0.714322 1.58232 -1.34754 5.20798 1.08048 12.2061 17.6373 -0.531459 -13.6072 1.56163 -1.55149 1.51801 5.07714 -1.1349 -12.2004 17.4423 0.508643 
